<svg id="_1" data-name="1" xmlns="http://www.w3.org/2000/svg" width="141.831" height="141.831" viewBox="0 0 141.831 141.831">
  <ellipse id="Ellipse_8" data-name="Ellipse 8" cx="70.916" cy="70.915" rx="70.916" ry="70.915" fill="#0071ce"/>
  <path id="Path_1842" data-name="Path 1842" d="M44.038,30.459v36.8a1.451,1.451,0,0,0,1.493,1.493H52.1a1.435,1.435,0,0,0,1.418-1.493V17.918A1.417,1.417,0,0,0,52.1,16.5H48.219a3.666,3.666,0,0,0-2.613.97l-9.555,8.062a1.5,1.5,0,0,0-.746,1.642l.448,3.732a1.268,1.268,0,0,0,1.568,1.045Z" transform="translate(24.058 29.712)" fill="#fff"/>
</svg>
