<svg id="_2" data-name="2" xmlns="http://www.w3.org/2000/svg" width="141.831" height="141.831" viewBox="0 0 141.831 141.831">
  <ellipse id="Ellipse_8" data-name="Ellipse 8" cx="70.916" cy="70.915" rx="70.916" ry="70.915" fill="#0071ce"/>
  <path id="Path_1843" data-name="Path 1843" d="M46.933,60.839V60.69C50.964,55.539,56.786,48.373,60,43.744c2.986-4.33,5.151-7.39,5.151-12.392,0-8.286-6.121-15.3-17.169-15.3-9.107,0-15.154,7.539-15.154,7.539A1.571,1.571,0,0,0,32.9,25.6l3.732,3.658a1.335,1.335,0,0,0,2.09,0c1.717-1.866,4.927-4.479,8.585-4.479,5.524,0,8.137,3.508,8.137,6.942,0,2.613-1.493,5.6-3.882,8.51C46.634,46.73,37.453,58.674,32.227,65.094a2.864,2.864,0,0,0-.6,1.717v.746a1.435,1.435,0,0,0,1.418,1.493H63.356a1.5,1.5,0,0,0,1.493-1.493v-5.3a1.484,1.484,0,0,0-1.493-1.418Z" transform="translate(21.648 29.415)" fill="#fff"/>
</svg>
