<svg xmlns="http://www.w3.org/2000/svg" width="47.145" height="35.023" viewBox="0 0 47.145 35.023">
  <g id="Have_a_new_card_in_hand_" data-name="Have a new card in hand?" transform="translate(-163.023 -766.693)">
    <path id="Path_1669" data-name="Path 1669" d="M204.125,801.716H169.067a6.051,6.051,0,0,1-6.044-6.043V772.736a6.051,6.051,0,0,1,6.044-6.043h35.058a6.051,6.051,0,0,1,6.043,6.043v22.937A6.05,6.05,0,0,1,204.125,801.716Zm-35.058-32.724a3.749,3.749,0,0,0-3.745,3.744v22.937a3.749,3.749,0,0,0,3.745,3.744h35.058a3.748,3.748,0,0,0,3.744-3.744V772.736a3.748,3.748,0,0,0-3.744-3.744Z" transform="translate(0 0)" fill="#fff"/>
    <rect id="Rectangle_2569" data-name="Rectangle 2569" width="44.845" height="2.299" transform="translate(164.173 773.622)" fill="#fff"/>
    <rect id="Rectangle_2570" data-name="Rectangle 2570" width="44.845" height="2.299" transform="translate(164.173 778.054)" fill="#fff"/>
    <rect id="Rectangle_2571" data-name="Rectangle 2571" width="6.365" height="2.299" transform="translate(170.355 788.169)" fill="#fff"/>
    <rect id="Rectangle_2572" data-name="Rectangle 2572" width="9.319" height="2.299" transform="translate(170.355 792.601)" fill="#fff"/>
  </g>
</svg>
