<svg width="120" height="40" viewBox="0 0 120 40" fill="none" xmlns="http://www.w3.org/2000/svg">
<path d="M110.135 0.00013H9.53468C9.16798 0.00013 8.80568 0.00013 8.43995 0.00213C8.1338 0.00413 7.83009 0.00994 7.521 0.01483C6.84951 0.0227318 6.17961 0.0818063 5.5171 0.19154C4.85552 0.303663 4.21467 0.515046 3.61622 0.81854C3.0185 1.1246 2.47235 1.5223 1.99757 1.9972C1.5203 2.47077 1.12246 3.01815 0.81935 3.61829C0.5154 4.21724 0.304641 4.85907 0.19435 5.52161C0.0830109 6.18332 0.0230984 6.85265 0.01515 7.52361C0.00587 7.83021 0.00489 8.13783 0 8.44447V31.5587C0.00489 31.8692 0.00587 32.17 0.01515 32.4806C0.0231008 33.1516 0.0830134 33.8209 0.19435 34.4825C0.304336 35.1455 0.515108 35.7877 0.81935 36.3868C1.12233 36.985 1.52022 37.5302 1.99757 38.0011C2.47054 38.4781 3.01705 38.8761 3.61622 39.1798C4.21467 39.4841 4.85545 39.6968 5.5171 39.8106C6.17972 39.9195 6.84956 39.9786 7.521 39.9874C7.83009 39.9942 8.1338 39.9981 8.43995 39.9981C8.80567 40.0001 9.168 40.0001 9.53468 40.0001H110.135C110.494 40.0001 110.859 40.0001 111.219 39.9981C111.523 39.9981 111.836 39.9942 112.141 39.9874C112.811 39.9791 113.479 39.92 114.141 39.8106C114.804 39.696 115.448 39.4834 116.049 39.1798C116.647 38.8759 117.193 38.478 117.666 38.0011C118.142 37.5284 118.541 36.9836 118.848 36.3868C119.15 35.7872 119.358 35.1451 119.467 34.4825C119.578 33.8208 119.64 33.1516 119.652 32.4806C119.656 32.17 119.656 31.8692 119.656 31.5587C119.664 31.1954 119.664 30.8341 119.664 30.4649V9.53626C119.664 9.17005 119.664 8.80677 119.656 8.44447C119.656 8.13783 119.656 7.83021 119.652 7.52357C119.64 6.85255 119.578 6.18337 119.467 5.52157C119.358 4.85941 119.149 4.21763 118.848 3.61825C118.23 2.41533 117.252 1.43616 116.049 0.81845C115.448 0.515697 114.804 0.30437 114.141 0.19145C113.48 0.0812328 112.811 0.0221378 112.141 0.01469C111.836 0.00981 111.523 0.00395 111.219 0.002C110.859 0 110.494 0 110.135 0V0.00013Z" fill="#A6A6A6"/>
<path d="M8.44487 39.1251C8.14019 39.1251 7.84287 39.1212 7.54058 39.1144C6.91436 39.1063 6.2896 39.0518 5.67144 38.9513C5.09503 38.8521 4.53664 38.6674 4.0147 38.4034C3.49754 38.1417 3.02585 37.7984 2.6177 37.3868C2.20364 36.9801 1.85891 36.5084 1.59719 35.9903C1.33258 35.4689 1.14945 34.91 1.05419 34.3331C0.951311 33.7132 0.895651 33.0864 0.887687 32.4581C0.881347 32.2472 0.873047 31.545 0.873047 31.545V8.44447C0.873047 8.44447 0.881887 7.75306 0.887737 7.54993C0.895363 6.92261 0.950699 6.29678 1.05327 5.67786C1.14871 5.09938 1.33197 4.53888 1.59673 4.01576C1.85749 3.49807 2.2003 3.02599 2.61187 2.61781C3.02297 2.20575 3.49617 1.86073 4.01421 1.59534C4.53495 1.33222 5.09228 1.14886 5.66753 1.0514C6.28772 0.949966 6.91465 0.895126 7.54304 0.88734L8.44536 0.87513H111.214L112.127 0.88783C112.75 0.895229 113.371 0.94958 113.985 1.05042C114.566 1.1491 115.13 1.33375 115.656 1.59827C116.694 2.13312 117.539 2.97929 118.071 4.0182C118.332 4.53771 118.512 5.09364 118.607 5.66712C118.71 6.29112 118.768 6.92187 118.78 7.55433C118.783 7.83753 118.783 8.14173 118.783 8.44447C118.791 8.81947 118.791 9.1764 118.791 9.53626V30.4649C118.791 30.8282 118.791 31.1827 118.783 31.5401C118.783 31.8653 118.783 32.1632 118.779 32.4698C118.768 33.091 118.711 33.7105 118.608 34.3233C118.515 34.9044 118.333 35.4676 118.068 35.9933C117.805 36.5057 117.462 36.9734 117.053 37.379C116.644 37.7928 116.172 38.1381 115.653 38.4015C115.128 38.6675 114.566 38.8529 113.985 38.9513C113.367 39.0523 112.742 39.1068 112.116 39.1144C111.823 39.1212 111.517 39.1251 111.219 39.1251L110.135 39.1271L8.44487 39.1251Z" fill="black"/>
<path fill-rule="evenodd" clip-rule="evenodd" d="M6.33333 3H114.667C117.06 3 119 4.95107 119 7.35783V33.5048C119 35.9115 117.06 37.8626 114.667 37.8626H6.33333C3.9401 37.8626 2 35.9115 2 33.5048V7.35783C2 4.95107 3.9401 3 6.33333 3ZM118.306 7.3576C118.306 5.33592 116.677 3.69703 114.666 3.69703H6.33308C4.32276 3.69703 2.69308 5.33592 2.69308 7.3576V33.5046C2.69308 35.5262 4.32276 37.1651 6.33308 37.1651H114.666C116.677 37.1651 118.306 35.5262 118.306 33.5046V7.3576Z" fill="black"/>
<path d="M43.097 11.9248C43.1267 12.5708 42.8918 13.2008 42.447 13.6679C41.9499 14.1872 41.2566 14.4692 40.5403 14.4436C39.8195 14.4507 39.1263 14.1653 38.6174 13.6519C38.1085 13.1385 37.8269 12.4404 37.8363 11.7156C37.8269 10.9907 38.1085 10.2927 38.6174 9.77931C39.1263 9.26591 39.8195 8.98049 40.5403 8.98759C40.9067 8.98636 41.2695 9.06051 41.6063 9.20548C41.9199 9.33269 42.1991 9.5328 42.421 9.78943L41.9616 10.2514C41.6109 9.83185 41.0845 9.60264 40.5403 9.63254C39.9948 9.62993 39.4718 9.85028 39.091 10.2431C38.7102 10.6358 38.5045 11.1673 38.521 11.7156C38.5093 12.5464 38.9959 13.3026 39.7542 13.6324C40.5125 13.9622 41.3936 13.8008 41.9876 13.2234C42.2543 12.9328 42.4081 12.5553 42.421 12.1601H40.5403V11.5326H43.0623C43.0854 11.662 43.097 11.7933 43.097 11.9248Z" fill="white"/>
<path d="M47.067 9.74585H44.727V11.4018H46.859V12.0294H44.727V13.6853H47.067V14.3303H44.0337V9.10089H47.067V9.74585Z" fill="white"/>
<path d="M49.9095 14.3303H49.2421V9.74585H47.7861V9.10089H51.4001V9.74585H49.9095V14.3303Z" fill="white"/>
<path d="M53.9479 14.3303V9.10089H54.6153V14.3303H53.9479Z" fill="white"/>
<path d="M57.5793 14.3303H56.9119V9.74585H55.4559V9.10089H59.0266V9.74585H57.5793V14.3303Z" fill="white"/>
<path fill-rule="evenodd" clip-rule="evenodd" d="M61.9823 13.6506C63.0371 14.7054 64.7409 14.7054 65.7956 13.6506C66.2991 13.1356 66.5742 12.4378 66.5583 11.7158C66.5742 10.9937 66.2991 10.2959 65.7956 9.78088C65.2912 9.26992 64.6049 8.98255 63.889 8.98255C63.173 8.98255 62.4867 9.26992 61.9823 9.78088C61.4788 10.2959 61.2038 10.9937 61.2196 11.7158C61.2038 12.4378 61.4788 13.1356 61.9823 13.6506ZM65.3015 13.2147C64.5204 13.997 63.2574 13.997 62.4762 13.2147C62.0875 12.8156 61.8777 12.274 61.8956 11.7156C61.8684 11.1622 62.0654 10.6214 62.4416 10.2165C63.2227 9.43422 64.4857 9.43422 65.2669 10.2165C65.6684 10.6098 65.8909 11.152 65.8822 11.7156C65.9001 12.274 65.6903 12.8156 65.3015 13.2147Z" fill="white"/>
<path d="M67.5026 14.3303V9.10089H68.3172L70.8479 13.1711V12.1601V9.10089H71.5152V14.3303H70.8219L68.1699 10.0683V11.0793V14.3303H67.5026Z" fill="white"/>
<path fill-rule="evenodd" clip-rule="evenodd" d="M43.3748 23.0984V24.6672H47.1188C47.0601 25.4061 46.7547 26.1033 46.2521 26.6456C45.4947 27.4215 44.4465 27.8394 43.3661 27.7961C41.0686 27.7961 39.2061 25.9231 39.2061 23.6126C39.2061 21.3021 41.0686 19.4291 43.3661 19.4291C44.4215 19.4118 45.4407 19.8161 46.2001 20.5534L47.3008 19.4465C46.2651 18.3918 44.8487 17.8038 43.3748 17.8167C41.2766 17.7346 39.3018 18.8135 38.2284 20.6284C37.155 22.4433 37.155 24.7034 38.2284 26.5183C39.3018 28.3333 41.2766 29.4122 43.3748 29.3301C44.8756 29.3983 46.3325 28.8103 47.3701 27.7177C48.2781 26.7144 48.7629 25.3956 48.7221 24.0397C48.7249 23.7093 48.6959 23.3795 48.6355 23.0548L43.3748 23.0984ZM52.986 21.9565C50.9529 21.9613 49.3081 23.6219 49.3113 25.6665C49.3145 27.7111 50.9644 29.3664 52.9975 29.3648C55.0307 29.3632 56.678 27.7053 56.678 25.6607C56.6923 24.6709 56.3064 23.7177 55.6087 23.0194C54.9111 22.3211 53.9614 21.9375 52.9773 21.9565H52.986ZM57.389 25.6722C57.3826 23.6288 59.023 21.9661 61.0549 21.9565C62.0391 21.9375 62.9887 22.3211 63.6864 23.0194C64.384 23.7177 64.7699 24.6709 64.7556 25.6607C64.7556 27.7042 63.11 29.3616 61.078 29.3648C59.046 29.368 57.3953 27.7157 57.389 25.6722ZM58.8812 26.6356C59.277 27.4687 60.1389 27.9739 61.0548 27.9094C61.6297 27.896 62.1748 27.6497 62.5664 27.2263C62.958 26.8029 63.163 26.2384 63.1348 25.6608C63.1326 24.7375 62.5694 23.9094 61.7145 23.5726C60.8597 23.2358 59.887 23.4587 59.2617 24.1347C58.6363 24.8108 58.4855 25.8025 58.8812 26.6356ZM50.8065 26.6423C51.2051 27.4749 52.0695 27.9775 52.9859 27.9095H52.9772C53.5521 27.8961 54.0971 27.6497 54.4888 27.2263C54.8804 26.8029 55.0854 26.2384 55.0572 25.6608C55.0547 24.7368 54.4904 23.9084 53.6344 23.5723C52.7785 23.2362 51.8053 23.461 51.1809 24.1388C50.5564 24.8167 50.4079 25.8097 50.8065 26.6423ZM79.4887 21.9567C80.9255 22.01 82.1806 22.9496 82.6433 24.3187L82.8253 24.7109L77.894 26.7591C78.2031 27.467 78.9111 27.9128 79.6793 27.8834C80.4211 27.8853 81.1091 27.4946 81.4907 26.8549L82.7473 27.7265C82.0632 28.7562 80.9107 29.3717 79.6793 29.3651C78.7005 29.3795 77.7579 28.993 77.0681 28.2944C76.3783 27.5958 76.0007 26.6452 76.022 25.6609C75.9621 24.6991 76.3007 23.7554 76.9574 23.0536C77.6142 22.3519 78.5304 21.9549 79.4887 21.9567ZM77.617 25.5561C77.5815 25.0115 77.7654 24.4755 78.1274 24.0688C78.4893 23.6622 78.9988 23.4192 79.541 23.3946C80.1124 23.3567 80.6512 23.6654 80.9103 24.179L77.617 25.5561ZM75.2335 29.147H73.6128V18.2524H75.2335V29.147ZM70.9608 22.7846H70.9001C70.4061 22.2292 69.6998 21.9121 68.9588 21.9131C66.9916 22.009 65.4456 23.6409 65.4456 25.6216C65.4456 27.6022 66.9916 29.2342 68.9588 29.3301C69.7022 29.3427 70.4131 29.0235 70.9001 28.4585H70.9521V28.9902C70.9521 30.4108 70.1981 31.1691 68.9848 31.1691C68.1582 31.1496 67.4254 30.6296 67.1301 29.853L65.7174 30.4457C66.2614 31.7764 67.5541 32.6419 68.9848 32.6333C70.8828 32.6333 72.4514 31.509 72.4514 28.7723V22.1745H70.9608V22.7846ZM69.1036 27.9092L69.1063 27.9095H69.0976L69.1036 27.9092ZM70.564 27.2103C70.192 27.6336 69.6646 27.8859 69.1036 27.9092C67.946 27.8053 67.0586 26.8298 67.0586 25.6608C67.0586 24.491 67.9474 23.5149 69.1063 23.4122C69.6662 23.4411 70.1909 23.6961 70.5613 24.1195C70.9316 24.5428 71.1164 25.0986 71.0736 25.6608C71.1214 26.2257 70.9372 26.7855 70.564 27.2103ZM90.2357 18.2523H86.353V29.1468H87.9737V25.0156H90.2357C91.4947 25.1066 92.6987 24.4827 93.3558 23.3988C94.0129 22.315 94.0129 20.9529 93.3558 19.869C92.6987 18.7852 91.4947 18.1613 90.2357 18.2523ZM87.9732 23.4818H90.2352L90.2698 23.508C91.2965 23.508 92.1288 22.671 92.1288 21.6385C92.1288 20.606 91.2965 19.769 90.2698 19.769H87.9732V23.4818ZM100.228 21.913C99.022 21.8405 97.8884 22.4944 97.3418 23.5776L98.7804 24.179C99.0703 23.6418 99.6481 23.3274 100.254 23.3772C100.669 23.3284 101.087 23.4495 101.413 23.7134C101.739 23.9772 101.946 24.3617 101.987 24.7804V24.8937C101.467 24.6165 100.886 24.4728 100.297 24.4754C98.7458 24.4754 97.1771 25.3469 97.1771 26.9245C97.208 27.604 97.511 28.2421 98.017 28.6936C98.5231 29.145 99.1891 29.3714 99.8638 29.3213C100.695 29.3813 101.493 28.9802 101.944 28.2754H101.996V29.1469H103.556V24.9547C103.556 23.046 102.117 21.9391 100.271 21.9391L100.228 21.913ZM98.7634 26.9595C98.7634 27.6132 99.5 27.8834 100.029 27.8834L100.072 27.9095C101.048 27.8856 101.858 27.142 101.97 26.1664C101.52 25.914 101.012 25.7875 100.497 25.8003C99.682 25.8003 98.7634 26.0879 98.7634 26.9595ZM109.242 22.1747L107.387 26.8986H107.335L105.411 22.1747H103.678L106.564 28.7812L104.917 32.4505H106.607L111.044 22.1747H109.242ZM96.2933 29.147H94.6727V18.2524H96.2933V29.147Z" fill="white"/>
<path d="M11.0486 9.57173C10.7723 9.91518 10.636 10.3513 10.6672 10.7919V30.0709C10.6408 30.5139 10.7834 30.9503 11.0659 31.2911L11.1266 31.3521L21.8472 20.5622V20.3094L11.1092 9.51072L11.0486 9.57173Z" fill="#00D8FF"/>
<path d="M25.3999 24.1615L21.8466 20.562V20.3092L25.3999 16.7009L25.4779 16.7445L29.7332 19.1762C30.9466 19.8647 30.9466 20.9977 29.7332 21.695L25.4952 24.118L25.3999 24.1615Z" fill="url(#paint0_linear_414:860)"/>
<path d="M25.504 24.1183L21.8466 20.4315L11.048 31.2912C11.5582 31.7423 12.3154 31.7643 12.8506 31.3435L25.5127 24.1095" fill="#F1324B"/>
<path d="M25.5037 16.7532L12.8417 9.51925C12.3065 9.09853 11.5493 9.12049 11.0391 9.57155L21.8464 20.4313L25.5037 16.7532Z" fill="#00F076"/>
<path opacity="0.2" d="M25.4 24.0306L12.842 31.2211C12.3281 31.6075 11.6225 31.6075 11.1086 31.2211L11.048 31.2821L11.1086 31.3431C11.6216 31.7324 12.329 31.7324 12.842 31.3431L25.504 24.1091L25.4 24.0306Z" fill="black"/>
<path d="M11.0478 31.169C10.7654 30.8281 10.6228 30.3917 10.6492 29.9488V30.0795C10.6228 30.5225 10.7654 30.9588 11.0478 31.2997L11.1085 31.2387L11.0478 31.169Z" fill="black"/>
<path d="M29.7331 21.5646L25.3998 24.0311L25.4778 24.1095L29.7331 21.6866C30.2246 21.4544 30.5551 20.9757 30.5998 20.4315C30.501 20.9238 30.1809 21.3423 29.7331 21.5646Z" fill="black"/>
<path d="M12.8422 9.64143L29.7335 19.2984C30.1814 19.5207 30.5014 19.9391 30.6002 20.4314C30.5555 19.8872 30.225 19.4085 29.7335 19.1764L12.8422 9.51941C11.6375 8.82216 10.6669 9.39739 10.6669 10.7919V10.9226C10.6669 9.52813 11.6375 8.95289 12.8422 9.64143Z" fill="black"/>
<defs>
<linearGradient id="paint0_linear_414:860" x1="31.3192" y1="11.541" x2="10.3546" y2="11.541" gradientUnits="userSpaceOnUse">
<stop stop-color="#FFE000"/>
<stop offset="0.41" stop-color="#FFBD00"/>
<stop offset="0.78" stop-color="#FFA500"/>
<stop offset="1" stop-color="#FF9C00"/>
</linearGradient>
</defs>
</svg>
