<svg width="32" height="32" viewBox="0 0 32 32" fill="none" xmlns="http://www.w3.org/2000/svg">
<path d="M17.5 14.6667H26.5C26.8978 14.6667 27.2794 14.8071 27.5607 15.0572C27.842 15.3072 28 15.6464 28 16C28 16.3536 27.842 16.6928 27.5607 16.9428C27.2794 17.1928 26.8978 17.3333 26.5 17.3333H17.5H14.5H5.5C5.10218 17.3333 4.72064 17.1928 4.43934 16.9428C4.15804 16.6928 4 16.3536 4 16C4 15.6464 4.15804 15.3072 4.43934 15.0572C4.72064 14.8071 5.10218 14.6667 5.5 14.6667H14.5H17.5Z" fill="#0071DC"/>
<path d="M17.5 8H26.5C26.8978 8 27.2794 8.14048 27.5607 8.39052C27.842 8.64057 28 8.97971 28 9.33333C28 9.68696 27.842 10.0261 27.5607 10.2761C27.2794 10.5262 26.8978 10.6667 26.5 10.6667H17.5H14.5H5.5C5.10218 10.6667 4.72064 10.5262 4.43934 10.2761C4.15804 10.0261 4 9.68696 4 9.33333C4 8.97971 4.15804 8.64057 4.43934 8.39052C4.72064 8.14048 5.10218 8 5.5 8H14.5H17.5Z" fill="#0071DC"/>
<path d="M17.5 21.3333H26.5C26.8978 21.3333 27.2794 21.4738 27.5607 21.7239C27.842 21.9739 28 22.3131 28 22.6667C28 23.0203 27.842 23.3594 27.5607 23.6095C27.2794 23.8595 26.8978 24 26.5 24H17.5H14.5H5.5C5.10218 24 4.72064 23.8595 4.43934 23.6095C4.15804 23.3594 4 23.0203 4 22.6667C4 22.3131 4.15804 21.9739 4.43934 21.7239C4.72064 21.4738 5.10218 21.3333 5.5 21.3333H14.5H17.5Z" fill="#0071DC"/>
</svg>
