<svg xmlns="http://www.w3.org/2000/svg" width="141.831" height="141.831" viewBox="0 0 141.831 141.831">
  <g id="Group_4174" data-name="Group 4174" transform="translate(3926 -1687.256)">
    <g id="Group_4109" data-name="Group 4109" transform="translate(-3926 1687.256)">
      <g id="Base" transform="translate(0 0)">
        <circle id="Ellipse_60" data-name="Ellipse 60" cx="70.916" cy="70.916" r="70.916" transform="translate(0 0)" fill="#1171ce"/>
      </g>
      <g id="Layer_1" data-name="Layer 1" transform="translate(20.018 49.658)">
        <g id="Group_4091" data-name="Group 4091" transform="translate(0)">
          <path id="Path_1822" data-name="Path 1822" d="M143.971,266.54h5.946a8.837,8.837,0,1,0,0-17.673h-5.946a.769.769,0,0,0-.746.77V265.77A.768.768,0,0,0,143.971,266.54Zm3.67-4.221v-9.256h2.252c2.488,0,4.226,1.9,4.226,4.616s-1.738,4.64-4.226,4.64Z" transform="translate(-135.629 -248.623)" fill="#ffc220"/>
          <rect id="Rectangle_2613" data-name="Rectangle 2613" width="4.465" height="17.673" rx="2.232" transform="translate(25.434 0.244)" fill="#ffc220"/>
          <path id="Path_1823" data-name="Path 1823" d="M231.786,254.438a5.473,5.473,0,0,0-5.62-5.571H218.88a.771.771,0,0,0-.77.77V265.77a.771.771,0,0,0,.77.77h2.9a.79.79,0,0,0,.77-.77v-5.907h1.185l3.156,6.288a.758.758,0,0,0,.665.389H230.8a.766.766,0,0,0,.68-.366.809.809,0,0,0,.005-.794l-3.176-5.888A5.424,5.424,0,0,0,231.786,254.438Zm-4.391.073a1.561,1.561,0,0,1-1.545,1.642h-3.3v-3.188h3.3A1.481,1.481,0,0,1,227.395,254.511Z" transform="translate(-184.975 -248.623)" fill="#ffc220"/>
          <path id="Path_1824" data-name="Path 1824" d="M266.183,266.54h10.089a.771.771,0,0,0,.77-.77v-2.656a.771.771,0,0,0-.77-.77h-6.444v-2.675h5.25a.771.771,0,0,0,.77-.77v-2.656a.79.79,0,0,0-.77-.77h-5.25v-2.407h6.444a.771.771,0,0,0,.77-.77v-2.656a.771.771,0,0,0-.77-.77H266.183a.771.771,0,0,0-.77.77V265.77A.771.771,0,0,0,266.183,266.54Z" transform="translate(-216.146 -248.623)" fill="#ffc220"/>
          <path id="Path_1825" data-name="Path 1825" d="M311.174,266.314a8.634,8.634,0,0,0,6.139-2.454.792.792,0,0,0,.031-1.086l-1.892-2.012a.785.785,0,0,0-1.067-.057,4.584,4.584,0,0,1-7.559-3.545,4.547,4.547,0,0,1,4.47-4.713,4.485,4.485,0,0,1,3.072,1.153.731.731,0,0,0,1.048,0l1.9-1.97a.768.768,0,0,0,.233-.569.776.776,0,0,0-.268-.557,8.465,8.465,0,0,0-6.1-2.346,9.08,9.08,0,1,0,0,18.161Z" transform="translate(-240.301 -248.153)" fill="#ffc220"/>
          <path id="Path_1826" data-name="Path 1826" d="M363.018,252.294v-2.656a.771.771,0,0,0-.77-.77h-10.82a.772.772,0,0,0-.77.77v2.656a.771.771,0,0,0,.77.77h3.178V265.77a.79.79,0,0,0,.77.77H358.3a.79.79,0,0,0,.77-.77V253.064h3.178A.771.771,0,0,0,363.018,252.294Z" transform="translate(-272.319 -248.623)" fill="#ffc220"/>
          <path id="Path_1827" data-name="Path 1827" d="M133.51,314.5h-5.946a.768.768,0,0,0-.746.77V331.4a.768.768,0,0,0,.746.77h5.946a8.836,8.836,0,1,0,0-17.673Zm4.2,8.812c0,2.732-1.738,4.64-4.226,4.64h-2.252v-9.256h2.252C135.974,318.693,137.711,320.591,137.711,323.309Z" transform="translate(-124.818 -291.871)" fill="#fff"/>
          <path id="Path_1828" data-name="Path 1828" d="M189.982,314.5H179.893a.771.771,0,0,0-.77.77V331.4a.771.771,0,0,0,.77.77h10.089a.771.771,0,0,0,.77-.77v-2.656a.771.771,0,0,0-.77-.77h-6.443V325.3h5.249a.771.771,0,0,0,.77-.77v-2.656a.791.791,0,0,0-.77-.771h-5.249v-2.408h6.443a.771.771,0,0,0,.77-.77v-2.656A.771.771,0,0,0,189.982,314.5Z" transform="translate(-159.285 -291.871)" fill="#fff"/>
          <path id="Path_1829" data-name="Path 1829" d="M227.067,314.5h-5.873a.771.771,0,0,0-.77.77V331.4a.771.771,0,0,0,.77.77h2.876a.79.79,0,0,0,.77-.77v-5.42h2.252a5.742,5.742,0,1,0-.024-11.483Zm1.4,5.693a1.483,1.483,0,0,1-1.472,1.618h-2.154v-3.114h2.154A1.436,1.436,0,0,1,228.465,320.19Z" transform="translate(-186.5 -291.871)" fill="#fff"/>
          <path id="Path_1830" data-name="Path 1830" d="M268.422,313.782a9.09,9.09,0,0,0-9.056,9.1,9.068,9.068,0,0,0,18.136,0A9.1,9.1,0,0,0,268.422,313.782Zm0,4.513a4.567,4.567,0,1,1-4.543,4.591A4.585,4.585,0,0,1,268.422,318.3Z" transform="translate(-212.161 -291.4)" fill="#fff"/>
          <path id="Path_1831" data-name="Path 1831" d="M323.887,320.9l-.289-.14c-1.491-.724-2.483-1.34-2.483-1.99s.441-1.033,1.179-1.033a6.326,6.326,0,0,1,3.132,1.272,1.054,1.054,0,0,0,1.486-.264l1.253-1.894a.915.915,0,0,0-.231-1.18,9.4,9.4,0,0,0-5.4-1.887c-2.95,0-5.937,1.771-5.937,5.157,0,3.036,2.318,4.411,4.9,5.662,1.725.837,2.337,1.408,2.337,2.185a1.223,1.223,0,0,1-1.374,1.155,5.841,5.841,0,0,1-3.226-1.245l-.058-.04a.948.948,0,0,0-.719-.151.844.844,0,0,0-.554.4l-1.124,1.98a.848.848,0,0,0,.151,1.094,7.933,7.933,0,0,0,5.7,1.967c3.792,0,6.058-2.721,6.058-5.352C328.693,323.231,326.028,321.938,323.887,320.9Z" transform="translate(-249.877 -291.4)" fill="#fff"/>
          <path id="Rectangle_2614" data-name="Rectangle 2614" d="M2.232,0h0A2.232,2.232,0,0,1,4.465,2.232V15.441a2.232,2.232,0,0,1-2.232,2.232h0A2.233,2.233,0,0,1,0,15.44V2.232A2.232,2.232,0,0,1,2.232,0Z" transform="translate(81.078 22.626)" fill="#fff"/>
          <path id="Path_1832" data-name="Path 1832" d="M389.071,314.5h-10.82a.771.771,0,0,0-.77.77v2.656a.771.771,0,0,0,.77.77h3.178V331.4a.79.79,0,0,0,.77.77h2.924a.79.79,0,0,0,.77-.77V318.693h3.178a.77.77,0,0,0,.77-.77v-2.656A.77.77,0,0,0,389.071,314.5Z" transform="translate(-289.994 -291.871)" fill="#fff"/>
        </g>
      </g>
    </g>
  </g>
</svg>
