<svg id="_3" data-name="3" xmlns="http://www.w3.org/2000/svg" width="141.831" height="141.831" viewBox="0 0 141.831 141.831">
  <ellipse id="Ellipse_8" data-name="Ellipse 8" cx="70.916" cy="70.915" rx="70.916" ry="70.915" fill="#0071ce"/>
  <path id="Path_1844" data-name="Path 1844" d="M31.93,63C33.647,64.944,38.349,69.8,47.9,69.8c10.6,0,17.692-6.27,17.692-15,0-6.793-5.151-10.9-9.256-12.466v-.3a12.872,12.872,0,0,0,7.913-11.869c0-8.659-7.465-14.108-16.423-14.108a18.228,18.228,0,0,0-14.407,6.793,1.357,1.357,0,0,0,0,2.016l3.732,3.508a1.44,1.44,0,0,0,2.09-.075,9.728,9.728,0,0,1,7.763-3.658,7.2,7.2,0,0,1,7.465,7.017c0,3.956-3.21,7.017-9.555,7.017h-4.33c-.9,0-1.418.523-1.418,1.568v4.852a1.393,1.393,0,0,0,1.418,1.493h4.33c6.942,0,10.6,2.986,10.6,7.913,0,3.956-3.434,6.942-8.137,6.942a12.481,12.481,0,0,1-9.48-4.18,1.275,1.275,0,0,0-1.941,0L32,61.063A1.568,1.568,0,0,0,31.93,63Z" transform="translate(21.647 29.415)" fill="#fff"/>
</svg>
