<?xml version="1.0" encoding="utf-8"?>
<!-- Generator: Adobe Illustrator 25.2.1, SVG Export Plug-In . SVG Version: 6.00 Build 0)  -->
<svg version="1.1" id="Layer_1" xmlns="http://www.w3.org/2000/svg" xmlns:xlink="http://www.w3.org/1999/xlink" x="0px" y="0px"
	 viewBox="0 0 155 155" style="enable-background:new 0 0 155 155;" xml:space="preserve">
<style type="text/css">
	.st0{fill:#0071CE;}
	.st1{enable-background:new    ;}
	.st2{fill:#FFFFFF;}
	.st3{fill:#FFC220;}
</style>
<g id="Base">
	<circle class="st0" cx="77.4" cy="77.4" r="77.6"/>
</g>
<g id="Layer_1_1_">
	<g class="st1">
		<path class="st2" d="M65.2,94.4c0.7,0,1.1,0.6,1,1.3l-0.6,4.8c-0.1,0.7-0.8,1.3-1.4,1.3H39.3c-0.7,0-1-0.6-0.9-1.3
			c0.1-1.2,0.2-1.5,1.1-2.6l18.7-22c1.8-2.1,4-5.1,4-8.4c0-2.9-1.6-5.4-4.9-5.4c-3.2,0-5.6,2.4-7.3,4.4c-0.5,0.6-1.3,0.5-1.8,0
			l-3.4-3.8c-0.4-0.4-0.4-1.3,0.2-1.8c1-1.1,5.9-6.8,13.3-6.8c8.1,0,12.5,5.5,12.5,13c0,4-1.7,7.9-5.1,12L52.6,94.2v0.1L65.2,94.4
			L65.2,94.4z"/>
	</g>
	<g class="st1">
		<path class="st3" d="M104.2,55.3c0.3-0.4,0.6-0.7,1.1-0.7h3.5c0.9,0,1.3,0.9,0.7,1.8L82.3,101c-0.2,0.3-0.6,0.7-1.1,0.7h-3.4
			c-0.9,0-1.3-0.9-0.8-1.8L104.2,55.3z M77.3,64.3c0-5.7,3.7-10.3,9.2-10.3c4.2,0,7.3,3.5,7.3,7.9c0,5.7-4.1,10.3-9.1,10.3
			C80.5,72.2,77.3,68.6,77.3,64.3z M88,62.6c0-1.5-0.7-2.8-2-2.8c-1.5,0-2.9,1.7-2.9,3.8c0,1.5,0.8,2.8,2,2.8
			C86.6,66.4,88,64.6,88,62.6z M102.4,84.3c4.2,0,7.3,3.5,7.3,7.9c0,5.7-4.1,10.3-9.1,10.3c-4.2,0-7.4-3.5-7.4-7.9
			C93.2,88.9,96.9,84.3,102.4,84.3z M101,96.7c1.4,0,2.8-1.8,2.8-3.8c0-1.5-0.7-2.8-2-2.8c-1.5,0-2.9,1.7-2.9,3.8
			C99,95.4,99.8,96.7,101,96.7z"/>
	</g>
</g>
</svg>
