<svg xmlns="http://www.w3.org/2000/svg" xmlns:xlink="http://www.w3.org/1999/xlink" width="142" height="142" viewBox="0 0 300 300">
  <defs>
    <clipPath id="clip-path">
      <rect id="Rectangle_2614" data-name="Rectangle 2614" width="300" height="300" fill="none"/>
    </clipPath>
    <clipPath id="clip-WMC-134_Save_Money_-_Icon_-_2_Percent_APY">
      <rect width="300" height="300"/>
    </clipPath>
  </defs>
  <g id="WMC-134_Save_Money_-_Icon_-_2_Percent_APY" data-name="WMC-134 Save Money - Icon - 2 Percent APY" clip-path="url(#clip-WMC-134_Save_Money_-_Icon_-_2_Percent_APY)">
    <g id="Group_4018" data-name="Group 4018">
      <g id="Group_4017" data-name="Group 4017" clip-path="url(#clip-path)">
        <path id="Path_1769" data-name="Path 1769" d="M150,0A150,150,0,1,1,0,150,150,150,0,0,1,150,0" fill="#0071ce"/>
        <path id="Path_1770" data-name="Path 1770" d="M90.422,132.2a2.017,2.017,0,0,1,1.933,2.513l-1.16,9.278a3.062,3.062,0,0,1-2.706,2.513H40.357c-1.353,0-1.933-1.16-1.74-2.513.193-2.32.387-2.9,2.126-5.026L76.891,96.439c3.479-4.059,7.732-9.858,7.732-16.237,0-5.606-3.093-10.438-9.472-10.438-6.186,0-10.825,4.639-14.111,8.505a2.3,2.3,0,0,1-3.479,0l-6.572-7.345a2.5,2.5,0,0,1,.387-3.479C53.308,65.318,62.78,54.3,77.084,54.3c15.657,0,24.162,10.631,24.162,25.129,0,7.732-3.286,15.271-9.858,23.2L66.066,131.813v.193Z" transform="translate(35.996 50.661)" fill="#fff"/>
        <path id="Path_1771" data-name="Path 1771" d="M129.981,56.713a2.622,2.622,0,0,1,2.126-1.353h6.765c1.74,0,2.513,1.74,1.353,3.479L87.648,145.051a2.788,2.788,0,0,1-2.126,1.353H78.95c-1.74,0-2.513-1.74-1.546-3.479Zm-52,17.4c0-11.018,7.152-19.91,17.783-19.91,8.119,0,14.111,6.765,14.111,15.271,0,11.018-7.925,19.91-17.59,19.91-8.119,0-14.3-6.959-14.3-15.271m20.683-3.286c0-2.9-1.353-5.412-3.866-5.412-2.9,0-5.606,3.286-5.606,7.345,0,2.9,1.546,5.412,3.866,5.412,2.9,0,5.606-3.479,5.606-7.345M126.5,112.77c8.119,0,14.111,6.765,14.111,15.271,0,11.018-7.925,19.91-17.59,19.91-8.119,0-14.3-6.765-14.3-15.271,0-11.018,7.152-19.91,17.783-19.91m-2.706,23.969c2.706,0,5.412-3.479,5.412-7.345,0-2.9-1.353-5.412-3.866-5.412-2.9,0-5.606,3.286-5.606,7.345.193,2.9,1.74,5.412,4.059,5.412" transform="translate(71.824 50.568)" fill="#ffc220"/>
      </g>
    </g>
  </g>
</svg>
