<?xml version="1.0" encoding="utf-8"?>
<!-- Generator: Adobe Illustrator 25.2.1, SVG Export Plug-In . SVG Version: 6.00 Build 0)  -->
<svg version="1.1" id="Layer_1" xmlns="http://www.w3.org/2000/svg" xmlns:xlink="http://www.w3.org/1999/xlink" x="0px" y="0px"
	 viewBox="0 0 155 155" style="enable-background:new 0 0 155 155;" xml:space="preserve">
<style type="text/css">
	.st0{fill:#0071CE;}
	.st1{clip-path:url(#SVGID_2_);fill:#4EC044;}
	.st2{clip-path:url(#SVGID_4_);fill:#059400;}
	.st3{clip-path:url(#SVGID_6_);fill:#059400;}
	.st4{clip-path:url(#SVGID_9_);fill:#059400;}
	.st5{clip-path:url(#SVGID_12_);fill:#FFFFFF;}
	.st6{clip-path:url(#SVGID_15_);fill:#FFFFFF;}
	.st7{clip-path:url(#SVGID_17_);fill:#FFFFFF;}
	.st8{fill:#FFC220;}
</style>
<g id="Base">
	<circle class="st0" cx="77.5" cy="77.5" r="77.5"/>
</g>
<g>
	<g>
		<g>
			<defs>
				<path id="SVGID_1_" d="M105.5,66.3l-1.1-1.3c-0.9-1.1-1.3-3-0.8-4.3l0.5-1.6c0.4-1.3-0.2-2.9-1.5-3.5l-1.5-0.8
					c-1.2-0.6-2.3-2.3-2.4-3.7l-0.2-1.7c-0.1-1.4-1.3-2.6-2.7-2.7l-1.7-0.2c-1.4-0.1-3-1.2-3.6-2.4l-0.8-1.5
					c-0.6-1.2-2.2-1.9-3.5-1.5l-1.6,0.5c-1.3,0.4-3.2,0-4.3-0.8L79,39.7c-1.1-0.9-2.8-0.9-3.8,0L74,40.9c-1.1,0.9-3,1.3-4.3,0.8
					l-1.6-0.5c-1.3-0.4-2.9,0.2-3.5,1.5l-0.8,1.5c-0.6,1.2-2.3,2.3-3.6,2.4l-1.7,0.2c-1.4,0.1-2.6,1.3-2.7,2.7l-0.2,1.7
					c-0.1,1.4-1.2,3-2.4,3.7l-1.5,0.8c-1.2,0.6-1.9,2.2-1.5,3.5l0.5,1.6c0.4,1.3,0,3.2-0.8,4.3l-1.1,1.3c-0.9,1.1-0.9,2.8,0,3.8
					l1.1,1.3c0.9,1.1,1.3,3,0.8,4.3l-0.5,1.6c-0.4,1.3,0.2,2.9,1.5,3.5l1.5,0.8c1.2,0.6,2.3,2.3,2.4,3.7l0.2,1.7
					c0.1,1.4,1.3,2.6,2.7,2.7l1.7,0.2c1.4,0.1,3,1.2,3.6,2.4l0.8,1.5c0.6,1.2,2.2,1.9,3.5,1.5l1.6-0.5c1.3-0.4,3.2,0,4.3,0.8
					l1.3,1.1c1.1,0.9,2.8,0.9,3.8,0l1.3-1.1c1.1-0.9,3-1.3,4.3-0.8l1.6,0.5c1.3,0.4,2.9-0.2,3.5-1.5l0.8-1.5
					c0.6-1.2,2.3-2.3,3.6-2.4l1.7-0.2c1.4-0.1,2.6-1.3,2.7-2.7l0.2-1.7c0.1-1.4,1.2-3,2.4-3.7l1.5-0.8c1.2-0.6,1.9-2.2,1.5-3.5
					l-0.5-1.6c-0.4-1.3,0-3.2,0.8-4.3l1.1-1.3C106.4,69.1,106.4,67.3,105.5,66.3"/>
			</defs>
			<clipPath id="SVGID_2_">
				<use xlink:href="#SVGID_1_"  style="overflow:visible;"/>
			</clipPath>
			<rect x="46.6" y="37.6" class="st1" width="61.1" height="61.2"/>
		</g>
	</g>
</g>
<g>
	<g>
		<g>
			<defs>
				<path id="SVGID_3_" d="M98.6,80.1c-0.2,0.3-13.1,12.7-14.8,12.7l16,23.9l5-9.9l11.1-0.8L98.6,80.1L98.6,80.1z"/>
			</defs>
			<clipPath id="SVGID_4_">
				<use xlink:href="#SVGID_3_"  style="overflow:visible;"/>
			</clipPath>
			<rect x="82.3" y="78.6" class="st2" width="35.1" height="39.6"/>
		</g>
	</g>
</g>
<g>
	<g>
		<g>
			<defs>
				<path id="SVGID_5_" d="M55.6,80.2c0.2,0.3,13.1,12.7,14.8,12.7l-16,23.9l-5-9.9l-11-0.9L55.6,80.2L55.6,80.2z"/>
			</defs>
			<clipPath id="SVGID_6_">
				<use xlink:href="#SVGID_5_"  style="overflow:visible;"/>
			</clipPath>
			<rect x="36.9" y="78.7" class="st3" width="35.1" height="39.6"/>
		</g>
	</g>
</g>
<g>
	<path id="SVGID_7_" class="st0" d="M105.5,66.3l-1.1-1.3c-0.9-1.1-1.3-3-0.8-4.3l0.5-1.6c0.4-1.3-0.2-2.9-1.5-3.5l-1.5-0.8
		c-1.2-0.6-2.3-2.3-2.4-3.7l-0.2-1.7c-0.1-1.4-1.3-2.6-2.7-2.7l-1.7-0.2c-1.4-0.1-3-1.2-3.6-2.4l-0.8-1.5c-0.6-1.2-2.2-1.9-3.5-1.5
		l-1.6,0.5c-1.3,0.4-3.2,0-4.3-0.8L79,39.7c-1.1-0.9-2.8-0.9-3.8,0L74,40.9c-1.1,0.9-3,1.3-4.3,0.8l-1.6-0.5
		c-1.3-0.4-2.9,0.2-3.5,1.5l-0.8,1.5c-0.6,1.2-2.3,2.3-3.6,2.4l-1.7,0.2c-1.4,0.1-2.6,1.3-2.7,2.7l-0.2,1.7c-0.1,1.4-1.2,3-2.4,3.7
		l-1.5,0.8c-1.2,0.6-1.9,2.2-1.5,3.5l0.5,1.6c0.4,1.3,0,3.2-0.8,4.3l-1.1,1.3c-0.9,1.1-0.9,2.8,0,3.8l1.1,1.3c0.9,1.1,1.3,3,0.8,4.3
		l-0.5,1.6c-0.4,1.3,0.2,2.9,1.5,3.5l1.5,0.8c1.2,0.6,2.3,2.3,2.4,3.7l0.2,1.7c0.1,1.4,1.3,2.6,2.7,2.7l1.7,0.2
		c1.4,0.1,3,1.2,3.6,2.4l0.8,1.5c0.6,1.2,2.2,1.9,3.5,1.5l1.6-0.5c1.3-0.4,3.2,0,4.3,0.8l1.3,1.1c1.1,0.9,2.8,0.9,3.8,0l1.3-1.1
		c1.1-0.9,3-1.3,4.3-0.8l1.6,0.5c1.3,0.4,2.9-0.2,3.5-1.5l0.8-1.5c0.6-1.2,2.3-2.3,3.6-2.4l1.7-0.2c1.4-0.1,2.6-1.3,2.7-2.7l0.2-1.7
		c0.1-1.4,1.2-3,2.4-3.7l1.5-0.8c1.2-0.6,1.9-2.2,1.5-3.5l-0.5-1.6c-0.4-1.3,0-3.2,0.8-4.3l1.1-1.3
		C106.4,69.1,106.4,67.3,105.5,66.3"/>
</g>
<g>
	<g>
		<g>
			<defs>
				<path id="SVGID_8_" d="M98.6,80.1c-0.2,0.3-13.1,12.7-14.8,12.7l16,23.9l5-9.9l11.1-0.8L98.6,80.1L98.6,80.1z"/>
			</defs>
			<clipPath id="SVGID_9_">
				<use xlink:href="#SVGID_8_"  style="overflow:visible;"/>
			</clipPath>
			<rect x="82.3" y="78.6" class="st4" width="35.1" height="39.6"/>
		</g>
	</g>
</g>
<g>
	<path id="SVGID_11_" class="st0" d="M98.6,80.1c-0.2,0.3-13.1,12.7-14.8,12.7l16,23.9l5-9.9l11.1-0.8L98.6,80.1L98.6,80.1z"/>
</g>
<g>
	<path id="SVGID_13_" class="st0" d="M55.6,80.2c0.2,0.3,13.1,12.7,14.8,12.7l-16,23.9l-5-9.9l-11-0.9L55.6,80.2L55.6,80.2z"/>
</g>
<g>
	<g>
		<g>
			<defs>
				<path id="SVGID_10_" d="M77.1,90.3C64.9,90.3,55,80.4,55,68.2s10-22.1,22.1-22.1S99.2,56,99.2,68.2S89.3,90.3,77.1,90.3
					 M105.5,66.3l-1.1-1.3c-0.9-1.1-1.3-3-0.8-4.3l0.5-1.6c0.4-1.3-0.2-2.9-1.5-3.5l-1.5-0.8c-1.2-0.6-2.3-2.3-2.4-3.7l-0.2-1.7
					c-0.1-1.4-1.3-2.6-2.7-2.7l-1.7-0.2c-1.4-0.1-3-1.2-3.6-2.4l-0.8-1.5c-0.6-1.2-2.2-1.9-3.5-1.5l-1.6,0.5c-1.3,0.4-3.2,0-4.3-0.8
					L79,39.7c-1.1-0.9-2.8-0.9-3.8,0L74,40.9c-1.1,0.9-3,1.3-4.3,0.8l-1.6-0.5c-1.3-0.4-2.9,0.2-3.5,1.5l-0.8,1.5
					c-0.6,1.2-2.3,2.3-3.6,2.4l-1.7,0.2c-1.4,0.1-2.6,1.3-2.7,2.7l-0.2,1.7c-0.1,1.4-1.2,3-2.4,3.7l-1.5,0.8
					c-1.2,0.6-1.9,2.2-1.5,3.5l0.5,1.6c0.4,1.3,0,3.2-0.8,4.3l-1.1,1.3c-0.9,1.1-0.9,2.8,0,3.8l1.1,1.3c0.9,1.1,1.3,3,0.8,4.3
					l-0.5,1.6c-0.4,1.3,0.2,2.9,1.5,3.5l1.5,0.8c1.2,0.6,2.3,2.3,2.4,3.7l0.2,1.7c0.1,1.4,1.3,2.6,2.7,2.7l1.7,0.2
					c1.4,0.1,3,1.2,3.6,2.4l0.8,1.5c0.6,1.2,2.2,1.9,3.5,1.5l1.6-0.5c1.3-0.4,3.2,0,4.3,0.8l1.3,1.1c1.1,0.9,2.8,0.9,3.8,0l1.3-1.1
					c1.1-0.9,3-1.3,4.3-0.8l1.6,0.5c1.3,0.4,2.9-0.2,3.5-1.5l0.8-1.5c0.6-1.2,2.3-2.3,3.6-2.4l1.7-0.2c1.4-0.1,2.6-1.3,2.7-2.7
					l0.2-1.7c0.1-1.4,1.2-3,2.4-3.7l1.5-0.8c1.2-0.6,1.9-2.2,1.5-3.5l-0.5-1.6c-0.4-1.3,0-3.2,0.8-4.3l1.1-1.3
					C106.4,69.1,106.4,67.3,105.5,66.3"/>
			</defs>
			<clipPath id="SVGID_12_">
				<use xlink:href="#SVGID_10_"  style="overflow:visible;"/>
			</clipPath>
			<rect x="46.6" y="37.6" class="st5" width="61.1" height="61.2"/>
		</g>
	</g>
</g>
<g>
	<g>
		<g>
			<defs>
				<path id="SVGID_14_" d="M62.8,95.6l-7.7,11.6l-2.5-5l-5.5-0.4l7.7-11.5c-0.8-0.8-1.3-1.9-1.4-3.1l-0.2-1.7c0-0.3-0.2-0.7-0.5-1
					l-14.3,21.4l11.1,0.8l5,9.9l12.6-18.9C65.4,97.7,63.8,96.9,62.8,95.6"/>
			</defs>
			<clipPath id="SVGID_15_">
				<use xlink:href="#SVGID_14_"  style="overflow:visible;"/>
			</clipPath>
			<rect x="36.9" y="83" class="st6" width="31.7" height="35.2"/>
		</g>
	</g>
</g>
<g>
	<g>
		<g>
			<defs>
				<path id="SVGID_16_" d="M101.5,84.5c-0.2,0.3-0.4,0.7-0.5,1l-0.2,1.7c-0.1,1.1-0.6,2.2-1.4,3.1l7.7,11.5l-5.5,0.4l-2.5,5
					l-7.7-11.6c-1,1.3-2.6,2.2-4.4,2.2l12.6,18.9l5-9.9l11.1-0.8L101.5,84.5L101.5,84.5z"/>
			</defs>
			<clipPath id="SVGID_17_">
				<use xlink:href="#SVGID_16_"  style="overflow:visible;"/>
			</clipPath>
			<rect x="85.6" y="83" class="st7" width="31.7" height="35.2"/>
		</g>
	</g>
</g>
<path class="st8" d="M78.3,79l0.3,3c0,0.5-0.7,1-1.5,1s-1.5-0.5-1.5-1l0.3-3c-3.1-0.3-4.8-1.7-5.5-2.3c-0.3-0.2-0.4-0.5-0.1-0.9
	l1.4-2.4c0.2-0.4,0.7-0.4,1-0.2c0.8,0.5,2.4,1.5,4.3,1.5c1.1,0,1.9-0.6,1.9-1.6c0-1.2-1.1-2-2.9-2.9c-2.9-1.4-5.8-2.9-5.8-6.5
	c0-2.7,1.9-5.4,5.8-5.8l-0.3-3.1c0-0.5,0.7-1,1.5-1s1.5,0.5,1.5,1L78.3,58c2.4,0.4,4.3,1.7,5.1,2.2c0.3,0.2,0.3,0.8,0.2,0.9L82,63.4
	c-0.2,0.3-0.7,0.6-1.3,0.2c-0.7-0.5-2.4-1.5-4-1.5c-1.1,0-1.7,0.6-1.7,1.4c0,1,1.1,1.7,3.1,2.7c2.6,1.3,6,2.7,6,6.7
	C84.2,75.7,81.9,78.5,78.3,79z"/>
</svg>
