<?xml version="1.0" encoding="utf-8"?>
<!-- Generator: Adobe Illustrator 25.2.1, SVG Export Plug-In . SVG Version: 6.00 Build 0)  -->
<svg version="1.1" id="Layer_1" xmlns="http://www.w3.org/2000/svg" xmlns:xlink="http://www.w3.org/1999/xlink" x="0px" y="0px"
	 viewBox="0 0 155 155" style="enable-background:new 0 0 155 155;" xml:space="preserve">
<style type="text/css">
	.st0{fill:#0071CE;}
	.st1{fill:#FFFFFF;}
	.st2{fill:#FFC220;}
</style>
<g id="Accounts_for_your_family_" transform="translate(-228.755 -202.426)">
	<g id="Group_415">
		<circle id="Ellipse_12" class="st0" cx="306.3" cy="279.9" r="77.5"/>
	</g>
	<path id="Path_677" class="st1" d="M277.1,300.8c0-4.4,2.7-8.3,6.7-10c-3.2-3-4.5-7.5-3.2-11.8c-1-0.1-1.9-0.1-3-0.1
		c-12.3,0-22.5,6-22.5,16.5v13.1H277L277.1,300.8z"/>
	<path id="Path_678" class="st1" d="M335.1,281.2c-4.2-0.1-8.4,0.8-12.2,2.6c-0.6,1.3-1.7,2.3-2.7,3.2c5.7,2.1,9.2,6.6,9.2,12.3v9.2
		h26V296C355.5,286.6,346.4,281.2,335.1,281.2z"/>
	<path id="Path_679" class="st1" d="M302.9,277.6c0,5.1,4.2,9.2,9.2,9.2l0,0c5.1,0,9.2-4.2,9.2-9.2c0-5.1-4.2-9.2-9.2-9.2l0,0
		C307.1,268.4,302.9,272.5,302.9,277.6z"/>
	<path id="Path_680" class="st1" d="M312.1,289c-3.8-0.1-7.5,1-10.6,3.2c2.9,1.9,4.5,5.2,4.5,8.7v7.8h20.1v-9.2
		C326.2,292.7,319.9,289,312.1,289z"/>
	<path id="Path_681" class="st1" d="M302.8,300.8c0-5.2-4.9-8.2-11.2-8.2s-11.2,3-11.2,8.2v7.8h22.3v-7.8H302.8z"/>
	<path id="Path_682" class="st1" d="M283.6,282.5c0,4.4,3.6,8,8,8s8-3.6,8-8s-3.6-8-8-8l0,0C287.1,274.4,283.6,278.1,283.6,282.5z"
		/>
	<path id="Path_683" class="st2" d="M307.1,263.2c0,0,11.4-7.4,11.4-13.4c0-3.5-2.9-6.4-6.4-6.4l0,0c-2.1,0-3.9,0.9-5.1,2.6
		c-2.1-2.9-6-3.4-8.8-1.4c-1.7,1.2-2.6,3.1-2.6,5.1C295.5,256,307.1,263.2,307.1,263.2z"/>
	<circle id="Ellipse_13" class="st1" cx="335.1" cy="267.2" r="11.8"/>
	<path id="Path_684" class="st1" d="M277.8,276.4c7.1,0,13-5.8,13-13l0,0c0-7.1-5.8-13-13-13l0,0l0,0c-7.1,0-13,5.8-13,13
		C264.8,270.7,270.6,276.4,277.8,276.4L277.8,276.4z"/>
</g>
</svg>
