<?xml version="1.0" encoding="utf-8"?>
<!-- Generator: Adobe Illustrator 26.0.3, SVG Export Plug-In . SVG Version: 6.00 Build 0)  -->
<svg version="1.1" id="Layer_1" xmlns="http://www.w3.org/2000/svg" xmlns:xlink="http://www.w3.org/1999/xlink" width="267" height="108" x="0px" y="0px" viewBox="85 35 70 110" style="enable-background:new 0 0 255 175;" xml:space="preserve">
<style type="text/css">
	.st0{enable-background:new    ;}
	.st1{fill:#0071CE;}
</style>
<g id="_2_HL" transform="translate(-545 -1463.552)">
	<g class="st0">
		<path class="st1" d="M700.6,1521c3.7,0,6.7,1.6,8.9,4.1c0.5,0.5,0.3,1.2-0.3,1.7l-2.2,2.4c-0.5,0.6-1.1,0.3-1.6-0.2
			c-1.1-1.1-2.5-2.1-4.8-2.1c-3.7,0-6.3,2.9-6.3,6.6c0,3.7,2.5,6.7,6.3,6.7c2.7,0,4.1-1.5,5.1-2.7c0.4-0.4,1.1-0.5,1.5-0.2l2.3,2
			c0.6,0.5,0.8,1.1,0.4,1.7c-2,3.2-5.3,5-9.5,5c-7,0-12.7-5.4-12.7-12.6C687.9,1526.5,693.5,1521,700.6,1521z"/>
		<path class="st1" d="M722.6,1530.4c2.4,0,4.6,0.7,4.6,0.7c0.1-3.1-2-4.5-4.5-4.5c-2.1,0-4.2,0.5-5.6,0.9c-0.8,0.3-1.2-0.3-1.4-1
			l-0.5-2.7c-0.2-0.9,0.3-1.3,0.8-1.5c0.5-0.2,3.7-1.2,7-1.2c7,0,10.2,3.9,10.2,10.5v13.2c0,0.6-0.4,1.1-1.2,1.1
			c-1.9,0-3.1-1-3.6-2.4c-1.5,1.3-3.8,2.8-7.3,2.8c-4.8,0-8.1-3.1-8.1-8.2C713,1533.6,716.5,1530.4,722.6,1530.4z M722.8,1541.3
			c2.1,0,4-1.7,4.3-2.5v-3.5c0,0-1.6-0.7-3.5-0.7c-2.8,0-4.3,1.3-4.3,3.4C719.3,1539.9,720.5,1541.3,722.8,1541.3z"/>
		<path class="st1" d="M739,1543.9c-0.3-0.2-0.6-0.8-0.3-1.3l1.6-3.1c0.3-0.6,0.8-0.8,1.4-0.4c1.1,0.7,2.8,1.6,5.3,1.6
			c1.8,0,2.7-0.7,2.7-1.7c0-1.1-1.4-2.1-4.5-3.3c-4.6-1.8-6.7-4-6.7-7.6c0-3.6,2.8-7,8.6-7c3.5,0,5.8,0.9,7.1,1.8
			c0.5,0.4,0.8,1,0.5,1.7l-1.4,2.8c-0.4,0.6-1,0.7-1.5,0.5c-1.1-0.5-2.8-1.2-4.8-1.2c-1.6,0-2.3,0.8-2.3,1.6c0,1.1,1.2,1.7,3.4,2.6
			c4.6,1.9,8,3.5,8,8.3c0,3.8-3.2,7.2-9.3,7.2C742.9,1546.1,740.4,1544.9,739,1543.9z"/>
		<path class="st1" d="M761.2,1510.3c0-0.6,0.6-1.1,1.1-1.1h4.2c0.6,0,1.1,0.6,1.1,1.1v12.7c1.2-1,3.3-2,6.1-2
			c7.6,0,9.7,5.3,9.7,11.3v12.1c0,0.6-0.6,1.1-1.1,1.1h-4.2c-0.6,0-1.1-0.5-1.1-1.1v-12.1c0-3.3-1.5-5.4-4.4-5.4
			c-2.8,0-4.4,1.8-5,4.2v13.3c0,0.7-0.3,1.1-1.2,1.1h-4.1c-0.6,0-1.1-0.5-1.1-1.1V1510.3z"/>
	</g>
	<g class="st0">
		<path class="st1" d="M689.3,1561.3c0-0.6,0.6-1.1,1.1-1.1h4.2c0.6,0,1.1,0.6,1.1,1.1v11.8c1.1-0.5,3.5-1,5.9-1
			c7.1,0,11.6,5.5,11.6,12.5c0,6.9-4.7,12.6-11.3,12.6c-3.9,0-6.4-2-7.7-3.3c-0.4,1.7-1.6,2.9-3.7,2.9c-0.8,0-1.2-0.5-1.2-1.1
			V1561.3z M695.8,1587.9c0.5,1.4,2.2,3.3,5.3,3.3c3.7,0,5.7-3.3,5.7-6.7s-2-6.6-6-6.6c-3,0-5,1.4-5,1.4V1587.9z"/>
		<path class="st1" d="M726.5,1581.4c2.4,0,4.6,0.7,4.6,0.7c0.1-3.1-2-4.5-4.5-4.5c-2.1,0-4.2,0.5-5.6,0.9c-0.8,0.3-1.2-0.3-1.4-1
			l-0.5-2.7c-0.2-0.9,0.3-1.3,0.8-1.5c0.5-0.2,3.7-1.2,7-1.2c7,0,10.2,3.9,10.2,10.5v13.2c0,0.6-0.4,1.1-1.2,1.1
			c-1.9,0-3.1-1-3.6-2.4c-1.5,1.3-3.8,2.8-7.3,2.8c-4.8,0-8.1-3.1-8.1-8.2C716.9,1584.6,720.4,1581.4,726.5,1581.4z M726.7,1592.3
			c2.1,0,4-1.7,4.3-2.5v-3.5c0,0-1.6-0.7-3.5-0.7c-2.8,0-4.3,1.3-4.3,3.4C723.2,1590.9,724.4,1592.3,726.7,1592.3z"/>
		<path class="st1" d="M755,1572c3.7,0,6.7,1.6,8.9,4.1c0.5,0.5,0.3,1.2-0.3,1.7l-2.2,2.4c-0.5,0.6-1.1,0.3-1.6-0.2
			c-1.1-1.1-2.5-2.1-4.8-2.1c-3.7,0-6.3,2.9-6.3,6.6c0,3.7,2.5,6.7,6.3,6.7c2.7,0,4.1-1.5,5.1-2.7c0.4-0.4,1.1-0.5,1.5-0.2l2.3,2
			c0.6,0.5,0.8,1.1,0.4,1.7c-2,3.2-5.3,5-9.5,5c-7,0-12.7-5.4-12.7-12.6C742.2,1577.5,747.8,1572,755,1572z"/>
		<path class="st1" d="M769.2,1561.3c0-0.6,0.6-1.1,1.1-1.1h4.2c0.6,0,1.1,0.6,1.1,1.1v20.3l8.3-8.4c0.4-0.4,0.8-0.7,1.5-0.7h4.9
			c1,0,1.4,1.1,0.8,1.8l-9.5,9.4l10,11.2c0.6,0.7,0.3,1.7-0.7,1.7h-5.1c-0.4,0-0.9-0.2-1-0.5l-9-10.8v10.1c0,0.6-0.5,1.1-1.1,1.1
			h-4.2c-0.6,0-1.1-0.5-1.1-1.1V1561.3z"/>
	</g>
	<g class="st0">
		<path class="st1" d="M595.8,1583.7c1.3,0,2,1.1,1.9,2.4l-1.1,8.9c-0.1,1.4-1.5,2.5-2.6,2.5h-46.5c-1.3,0-1.9-1.1-1.8-2.5
			c0.3-2.3,0.4-2.9,2-4.8l35-41.2c3.4-4,7.4-9.5,7.4-15.6c0-5.4-3-10.2-9.2-10.2c-6,0-10.5,4.5-13.6,8.2c-0.9,1.1-2.4,0.9-3.3,0
			l-6.4-7.2c-0.8-0.8-0.8-2.4,0.4-3.4c1.9-2,11-12.7,24.8-12.7c15.1,0,23.4,10.3,23.4,24.3c0,7.4-3.2,14.9-9.6,22.6l-24.4,28.5v0.3
			H595.8z"/>
	</g>
	<g class="st0">
		<path class="st1" d="M664.9,1510.6c0.5-0.8,1.1-1.3,2.1-1.3h6.6c1.6,0,2.4,1.8,1.4,3.4l-50.9,83.5c-0.4,0.5-1.1,1.3-2,1.3h-6.4
			c-1.8,0-2.5-1.8-1.5-3.4L664.9,1510.6z M614.6,1527.4c0-10.6,6.9-19.3,17.3-19.3c7.8,0,13.7,6.6,13.7,14.7
			c0,10.7-7.7,19.3-17.1,19.3C620.5,1542.1,614.6,1535.6,614.6,1527.4z M634.5,1524.2c0-2.8-1.4-5.2-3.7-5.2c-2.8,0-5.4,3.1-5.4,7.1
			c0,2.8,1.5,5.2,3.8,5.2C631.8,1531.3,634.5,1528,634.5,1524.2z M661.6,1564.8c7.8,0,13.7,6.6,13.7,14.7c0,10.7-7.7,19.3-17.1,19.3
			c-7.9,0-13.9-6.6-13.9-14.7C644.3,1573.5,651.2,1564.8,661.6,1564.8z M658.9,1588c2.6,0,5.3-3.3,5.3-7.1c0-2.8-1.4-5.2-3.7-5.2
			c-2.8,0-5.4,3.1-5.4,7.1C655.2,1585.6,656.7,1588,658.9,1588z"/>
	</g>
</g>
</svg>
