<?xml version="1.0" encoding="utf-8"?>
<!-- Generator: Adobe Illustrator 25.2.1, SVG Export Plug-In . SVG Version: 6.00 Build 0)  -->
<svg version="1.1" id="Layer_1" xmlns="http://www.w3.org/2000/svg" xmlns:xlink="http://www.w3.org/1999/xlink" x="0px" y="0px"
	 viewBox="0 0 512.7 512.7" style="enable-background:new 0 0 512.7 512.7;" xml:space="preserve">
<style type="text/css">
	.st0{fill:#0071CE;}
	.st1{fill:#FFC220;}
	.st2{fill:none;stroke:#FFFFFF;stroke-width:16;stroke-linecap:round;stroke-linejoin:round;}
</style>
<g id="Base">
	<circle class="st0" cx="256.3" cy="256.3" r="256.3"/>
</g>
<g id="Layer_1_1_">
	<path class="st1" d="M264.6,328.6l1.8,20.5c0.2,3.6-4.5,6.9-10,6.9c-5.6,0-10.2-3.3-10-6.9l1.8-20.5c-21.1-2-32.9-11.6-37.1-15.6
		c-1.8-1.6-2.4-3.3-0.9-6l9.3-16.5c1.6-2.7,4.9-2.7,6.9-1.3c5.6,3.8,16,10.5,28.9,10.5c7.6,0,13.1-4,13.1-10.7
		c0-8.5-7.1-13.6-20-19.8c-19.8-9.6-39.4-19.8-39.4-44.3c0-18.5,12.9-36.7,39.1-39.6l-1.8-20.7c-0.2-3.8,4.4-6.7,10-6.9
		c5.5-0.2,10.2,3.1,10,6.9l-1.8,20.9c16.7,2.7,28.9,11.6,34.7,14.9c2.2,1.3,2,5.1,1.1,6.4L290,222.6c-1.8,2.8-5.6,3.7-8.4,1.9
		c-0.2-0.1-0.3-0.2-0.5-0.3c-4.7-3.1-16.5-10-27.4-10c-7.8,0-11.3,4-11.3,9.6c0,6.7,7.3,11.6,21.1,18.2c17.8,8.7,40.9,18,40.9,45.6
		C304.5,306.4,289.6,325.3,264.6,328.6z"/>
	<path class="st2" d="M373.5,134v164.8c0,64.7-117.2,117.2-117.2,117.2s-117.2-52.5-117.2-117.2V134c7.3,0.9,14.6,1.4,22,1.4
		c33.7,0.1,66.6-9.4,95.2-27.2c28.5,17.8,61.5,27.3,95.2,27.2C358.9,135.4,366.2,134.9,373.5,134z"/>
</g>
</svg>
