<svg xmlns="http://www.w3.org/2000/svg" xmlns:xlink="http://www.w3.org/1999/xlink" width="142" height="142" viewBox="0 0 300 300">
  <defs>
    <clipPath id="clip-WMC-134_Save_Money_-_Icon_-_Overdraft_Protection">
      <rect width="300" height="300"/>
    </clipPath>
  </defs>
  <g id="WMC-134_Save_Money_-_Icon_-_Overdraft_Protection" data-name="WMC-134 Save Money - Icon - Overdraft Protection" clip-path="url(#clip-WMC-134_Save_Money_-_Icon_-_Overdraft_Protection)">
    <g id="Group_4016" data-name="Group 4016" transform="translate(-671.417 -0.5)">
      <g id="Base" transform="translate(671.417 0.5)">
        <circle id="Ellipse_45" data-name="Ellipse 45" cx="150" cy="150" r="150" fill="#0071ce"/>
      </g>
      <g id="Layer_1" data-name="Layer 1" transform="translate(748.215 59.129)">
        <path id="Path_1670" data-name="Path 1670" d="M912.49,257.563l1.052,11.979c.116,2.1-2.63,4.032-5.844,4.032-3.272,0-5.961-1.928-5.844-4.032l1.052-11.979c-12.329-1.169-19.225-6.778-21.679-9.116a2.461,2.461,0,0,1-.526-3.506l5.435-9.642a2.787,2.787,0,0,1,4.032-.76c3.273,2.221,9.35,6.136,16.888,6.136,4.441,0,7.655-2.338,7.655-6.253,0-4.967-4.149-7.947-11.687-11.57-11.57-5.61-23.024-11.57-23.024-25.887,0-10.811,7.539-21.446,22.848-23.141l-1.051-12.1c-.118-2.221,2.571-3.915,5.843-4.032,3.214-.117,5.96,1.811,5.844,4.032l-1.052,12.213c9.759,1.578,16.887,6.778,20.277,8.707,1.285.76,1.168,2.98.643,3.74l-6.019,9.233a3.585,3.585,0,0,1-4.909,1.11c-.116-.058-.175-.117-.292-.175-2.747-1.812-9.642-5.844-16.011-5.844-4.558,0-6.6,2.337-6.6,5.61,0,3.915,4.266,6.779,12.331,10.635,10.4,5.084,23.9,10.518,23.9,26.647C935.806,244.59,927.1,255.634,912.49,257.563Z" transform="translate(-834.479 -124.096)" fill="#ffc220"/>
        <path id="Path_1671" data-name="Path 1671" d="M875.261,289.414a4.671,4.671,0,0,1-1.911-.408c-2.91-1.3-71.25-32.381-71.25-72.753v-96.3a4.674,4.674,0,0,1,5.246-4.64,100.366,100.366,0,0,0,12.579.783,99.97,99.97,0,0,0,52.866-15.189,4.674,4.674,0,0,1,4.946,0,99.919,99.919,0,0,0,65.438,14.4,4.675,4.675,0,0,1,5.247,4.64v96.3c0,40.372-68.341,71.449-71.251,72.753A4.67,4.67,0,0,1,875.261,289.414ZM811.45,125.122v91.131c0,17.522,17.5,33.9,32.189,44.547a217.049,217.049,0,0,0,31.622,18.775A217.2,217.2,0,0,0,906.883,260.8c14.685-10.65,32.19-27.025,32.19-44.547V125.122c-2.883.225-5.7.32-8.505.323a108.942,108.942,0,0,1-55.311-15.1,109.225,109.225,0,0,1-55.319,15.1C817.126,125.446,814.329,125.346,811.45,125.122Z" transform="translate(-802.1 -100.2)" fill="#fff"/>
      </g>
    </g>
  </g>
</svg>
