<?xml version="1.0" encoding="utf-8"?>
<!-- Generator: Adobe Illustrator 26.2.1, SVG Export Plug-In . SVG Version: 6.00 Build 0)  -->
<svg version="1.1" xmlns="http://www.w3.org/2000/svg" xmlns:xlink="http://www.w3.org/1999/xlink" x="0px" y="0px"
	 viewBox="0 0 518.7 518.2" style="enable-background:new 0 0 518.7 518.2;" xml:space="preserve">
<style type="text/css">
	.st0{fill:#0071DC;}
	.st1{fill:#FFC220;}
	.st2{fill-rule:evenodd;clip-rule:evenodd;fill:#FFFFFF;}
	.st3{fill-rule:evenodd;clip-rule:evenodd;fill:#FFC220;}
	.st4{fill:#FFC20E;}
	.st5{fill:none;stroke:#FFFFFF;stroke-width:18.7464;stroke-linecap:round;stroke-linejoin:round;stroke-miterlimit:10;}
	.st6{display:none;}
	.st7{display:inline;fill:#0077C0;}
	.st8{display:inline;}
	.st9{fill:#FFFFFF;}
	.st10{fill:#FFC20E;stroke:#FFC20E;stroke-miterlimit:10;}
	.st11{fill:none;stroke:#FFC20E;stroke-width:29;stroke-linecap:round;stroke-linejoin:round;stroke-miterlimit:10;}
</style>
<g id="Layer_1">
	<g>
		<circle class="st0" cx="259.4" cy="259.1" r="256.3"/>
		<g>
			<path class="st1" d="M151.2,139.4h17.7v7.2v5.1v0l0,0l0,0v0l0,0l0,0v0v0l0,0v0l0,0l0,0v0l0,0l0,0v0l0,0l0,0v0l0,0l0,0v0l0,0v0
				l0,0v0l0,0v0l0,0l0,0v0l0,0v0l0,0l0,0v0l0,0l0,0l0,0v0l0,0h0v0l0,0l0,0v0l0,0v0l0,0l0,0v0l0,0l0,0v0l0,0l0,0v0l0,0
				c0.1,3,1.4,5.7,3.4,7.7c2.1,2.1,5,3.4,8.2,3.4c3.2,0,6.1-1.3,8.2-3.4c2-2,3.3-4.7,3.4-7.7l0,0v0l0,0l0,0v0l0,0l0,0v0l0,0l0,0v0
				l0,0v0l0,0l0,0v0l0,0l0,0v0l0,0l0,0l0,0v0l0,0l0,0v0l0,0v0l0,0l0,0v0l0,0v0l0,0v0l0,0v0l0,0l0,0v0l0,0l0,0v0l0,0l0,0v0l0,0l0,0v0
				l0,0v0v0l0,0l0,0v0l0,0l0,0v0v-5.1v-7.2h100.6v7.2v5.1v0l0,0l0,0v0l0,0l0,0v0v0l0,0v0l0,0l0,0v0l0,0l0,0v0l0,0l0,0v0l0,0l0,0v0
				l0,0v0l0,0v0l0,0v0l0,0l0,0v0l0,0v0l0,0l0,0v0l0,0l0,0l0,0v0l0,0l0,0v0l0,0l0,0v0l0,0v0l0,0l0,0v0l0,0l0,0v0l0,0l0,0v0l0,0
				c0.1,3,1.4,5.7,3.4,7.7c2.1,2.1,5,3.4,8.2,3.4c3.2,0,6.1-1.3,8.2-3.4c2-2,3.3-4.7,3.4-7.7l0,0v0l0,0l0,0v0l0,0l0,0v0l0,0l0,0v0
				l0,0l0,0l0,0l0,0v0l0,0l0,0v0l0,0l0,0l0,0v0l0,0l0,0v0l0,0v0l0,0l0,0v0l0,0v0l0,0v0l0,0v0l0,0l0,0v0l0,0l0,0v0l0,0l0,0v0l0,0l0,0
				v0l0,0v0v0l0,0l0,0v0l0,0l0,0v0v-5.1v-7.2h17.7c6.9,0,13.2,2.8,17.8,7.4c4.6,4.6,7.4,10.9,7.4,17.8V252h-18.7v-57.9H144.7l-1,135
				c0,3.4,1.1,7.3,3.4,9.5c2.3,2.3,7.4,3,8.1,3h117.6v20.7H151.2c-6.9,0-13.2-2.8-17.8-7.4c-4.6-4.6-7.4-14.9-7.4-21.8V164.6
				c0-6.9,2.8-13.2,7.4-17.8C138,142.2,144.3,139.4,151.2,139.4L151.2,139.4z"/>
			<path class="st2" d="M161.3,209.9h24.8c2,0,3.6,1.6,3.6,3.6v24.8c0,2-1.6,3.6-3.6,3.6h-24.8c-2,0-3.6-1.6-3.6-3.6v-24.8
				C157.8,211.5,159.4,209.9,161.3,209.9L161.3,209.9z"/>
			<path class="st2" d="M207,209.9h24.8c2,0,3.6,1.6,3.6,3.6v24.8c0,2-1.6,3.6-3.6,3.6H207c-2,0-3.6-1.6-3.6-3.6v-24.8
				C203.5,211.5,205.1,209.9,207,209.9L207,209.9z"/>
			<path class="st2" d="M252.7,209.9h24.8c2,0,3.6,1.6,3.6,3.6v24.8c0,2-1.6,3.6-3.6,3.6h-24.8c-2,0-3.6-1.6-3.6-3.6v-24.8
				C249.1,211.5,250.7,209.9,252.7,209.9L252.7,209.9z"/>
			<path class="st2" d="M298.4,209.9h24.8c2,0,3.6,1.6,3.6,3.6v24.8c0,2-1.6,3.6-3.6,3.6h-24.8c-2,0-3.6-1.6-3.6-3.6v-24.8
				C294.8,211.5,296.4,209.9,298.4,209.9L298.4,209.9z"/>
			<path class="st2" d="M161.3,254.1h24.8c2,0,3.6,1.6,3.6,3.6v24.8c0,2-1.6,3.6-3.6,3.6h-24.8c-2,0-3.6-1.6-3.6-3.6v-24.8
				C157.8,255.7,159.4,254.1,161.3,254.1L161.3,254.1z"/>
			<path class="st2" d="M207,254.1h24.8c2,0,3.6,1.6,3.6,3.6v24.8c0,2-1.6,3.6-3.6,3.6H207c-2,0-3.6-1.6-3.6-3.6v-24.8
				C203.5,255.7,205.1,254.1,207,254.1L207,254.1z"/>
			<path class="st2" d="M252.7,254.1h24.8c2,0,3.6,1.6,3.6,3.6v24.8c0,2-1.6,3.6-3.6,3.6h-24.8c-2,0-3.6-1.6-3.6-3.6v-24.8
				C249.1,255.7,250.7,254.1,252.7,254.1L252.7,254.1z"/>
			<path class="st2" d="M161.3,298.2h24.8c2,0,3.6,1.6,3.6,3.6v24.8c0,2-1.6,3.6-3.6,3.6h-24.8c-2,0-3.6-1.6-3.6-3.6v-24.8
				C157.8,299.9,159.4,298.2,161.3,298.2L161.3,298.2z"/>
			<path class="st2" d="M207,298.2h24.8c2,0,3.6,1.6,3.6,3.6v24.8c0,2-1.6,3.6-3.6,3.6H207c-2,0-3.6-1.6-3.6-3.6v-24.8
				C203.5,299.9,205.1,298.2,207,298.2L207,298.2z"/>
			<path class="st3" d="M168.6,157.6c0.2,3,1.5,5.8,3.5,7.8c2.1,2.1,5.1,3.5,8.4,3.5c3.2,0,6.2-1.3,8.3-3.5c2-2,3.3-4.8,3.5-7.8
				c0-0.2,0-0.4,0-0.6v-7.2v-10.1v-18.8c0-3.2-1.3-6.2-3.5-8.4c-2.1-2.1-5.1-3.5-8.3-3.5c-3.2,0-6.2,1.3-8.4,3.5
				c-2.1,2.1-3.5,5.1-3.5,8.4v18.8v10.1v7.2C168.6,157.2,168.6,157.4,168.6,157.6L168.6,157.6z"/>
			<path class="st3" d="M292.3,139.6v10.1v7.2c0,0.2,0,0.4,0,0.6c0.2,3,1.5,5.8,3.5,7.8c2.1,2.1,5.1,3.5,8.3,3.5
				c3.2,0,6.2-1.3,8.4-3.5c2-2,3.3-4.8,3.5-7.8c0-0.2,0-0.4,0-0.6v-7.2v-10.1v-18.8c0-3.2-1.3-6.2-3.5-8.4c-2.1-2.1-5.1-3.5-8.4-3.5
				c-3.2,0-6.2,1.3-8.3,3.5c-2.2,2.1-3.5,5.1-3.5,8.4V139.6z"/>
			<g>
				<path class="st4" d="M353.3,266.7c18.6,0,35.5,7.6,47.7,19.8c12.2,12.2,19.7,29,19.7,47.7c0,18.6-7.5,35.5-19.7,47.7
					c-12.2,12.2-29,19.8-47.7,19.8c-18.6,0-35.5-7.6-47.7-19.8c-12.2-12.2-19.7-29-19.7-47.7c0-18.6,7.6-35.5,19.7-47.7
					C317.9,274.2,334.7,266.7,353.3,266.7L353.3,266.7z M392,295.4c-9.9-9.9-23.6-16-38.7-16c-15.1,0-28.8,6.1-38.7,16
					c-9.9,9.9-16,23.6-16,38.7c0,15.1,6.1,28.8,16,38.7c9.9,9.9,23.6,16,38.7,16c15.1,0,28.8-6.1,38.7-16c9.9-9.9,16-23.6,16-38.7
					C408.1,319,401.9,305.3,392,295.4L392,295.4z"/>
				<path class="st1" d="M353.3,271.2c17.4,0,33.1,7,44.4,18.4c11.4,11.4,18.4,27.1,18.4,44.4c0,17.4-7,33.1-18.4,44.4
					c-11.4,11.4-27.1,18.4-44.4,18.4c-17.4,0-33.1-7-44.5-18.4c-11.4-11.4-18.4-27.1-18.4-44.4c0-17.4,7-33.1,18.4-44.4
					C320.3,278.3,336,271.2,353.3,271.2L353.3,271.2z M389.4,298c-9.2-9.2-22-14.9-36.1-14.9c-14.1,0-26.9,5.7-36.1,14.9
					c-9.2,9.2-15,22-15,36.1c0,14.1,5.7,26.9,15,36.1c9.2,9.2,22,14.9,36.1,14.9c14.1,0,26.8-5.7,36.1-14.9
					c9.2-9.2,14.9-22,14.9-36.1C404.4,320,398.7,307.3,389.4,298L389.4,298z"/>
			</g>
			<g>
				<line class="st5" x1="333.9" y1="314.6" x2="372.8" y2="353.6"/>
				<line class="st5" x1="372.8" y1="314.6" x2="333.9" y2="353.6"/>
			</g>
		</g>
	</g>
</g>
<g id="Layer_3" class="st6">
	<circle class="st7" cx="1378.4" cy="258.1" r="256.3"/>
	<g class="st8">
		<g>
			<g>
				<path class="st9" d="M1354.3,234.8c4.4,0,9,1.7,12.7,3.5l14.4-14.4c-4.4-2.7-11.2-6.6-19.8-7.9l1.2-13.8
					c0.1-2.5-2.9-4.7-6.6-4.6c-3.7,0.1-6.8,2.1-6.6,4.6l1.2,13.7c-17.3,1.9-25.9,14-25.9,26.2c0,11.5,6.6,18.2,15.1,23.5l15.2-15.2
					c-5.4-3.1-8.2-5.7-8.2-9.1C1346.8,237.4,1349.2,234.8,1354.3,234.8z M1389.8,285.3c0-11.8-6.4-18.6-14.2-23.4l-15.5,15.5
					c3.8,2.6,5.9,5.3,5.9,9c0,4.4-3.7,7.1-8.7,7.1c-4.1,0-7.8-1-10.9-2.3l-14.3,14.3c4.1,2.8,10.9,6.2,20.6,7.1l-1.2,13.5
					c-0.1,2.4,2.9,4.6,6.6,4.6s6.8-2.2,6.6-4.6l-1.2-13.5C1380,310.3,1389.8,297.8,1389.8,285.3z"/>
			</g>
			<path class="st10" d="M1396.9,230.9l-53.6,53.6l-11.7,11.7l-7.5,7.5c-0.9,0.9-2.1,1.3-3.2,1.3c-1.2,0-2.3-0.4-3.2-1.3
				c-1.8-1.8-1.8-4.7,0-6.4l29.1-29.1l13.2-13.2l30.5-30.5c1.8-1.8,4.7-1.8,6.4,0C1398.7,226.3,1398.7,229.1,1396.9,230.9z"/>
		</g>
		<path class="st9" d="M1497.3,256.1h-38V142.2c0-2.2-0.6-4.4-1.7-6.4c-1.1-1.9-2.7-3.5-4.6-4.7c-1.9-1.1-4.1-1.7-6.3-1.7
			c-2.2,0-4.4,0.6-6.3,1.7l-38,21.8l-38-21.8c-1.9-1.1-4.1-1.7-6.3-1.7s-4.4,0.6-6.3,1.7l-38,21.8l-38-21.8
			c-1.9-1.1-4.1-1.7-6.3-1.7c-2.2,0-4.4,0.6-6.3,1.7c-1.9,1.1-3.5,2.7-4.6,4.7c-1.1,1.9-1.7,4.1-1.7,6.4v202.6
			c0,10.1,4,19.7,11.1,26.9c7.1,7.1,16.8,11.1,26.9,11.1H1472c10.1,0,19.7-4,26.9-11.1c7.1-7.1,11.1-16.8,11.1-26.9v-76
			c0-3.4-1.3-6.6-3.7-9C1503.9,257.4,1500.7,256.1,1497.3,256.1z M1294.7,357.4c-3.4,0-6.6-1.3-9-3.7c-2.4-2.4-3.7-5.6-3.7-9V164.1
			l25.3,14.4c2,1,4.1,1.6,6.3,1.6s4.4-0.5,6.3-1.6l38-21.8l38,21.8c2,1,4.1,1.6,6.3,1.6s4.4-0.5,6.3-1.6l25.3-14.4v180.7
			c0,4.3,0.8,8.6,2.3,12.7H1294.7z M1484.6,344.7c0,3.4-1.3,6.6-3.7,9c-2.4,2.4-5.6,3.7-9,3.7c-3.4,0-6.6-1.3-9-3.7
			c-2.4-2.4-3.7-5.6-3.7-9v-63.3h25.3V344.7z"/>
	</g>
</g>
<g id="Layer_4" class="st6">
	<circle class="st7" cx="1948.5" cy="258.1" r="256.3"/>
	<g class="st8">
		<path class="st9" d="M2067.4,256.1h-38V142.2c0-2.2-0.6-4.4-1.7-6.4c-1.1-1.9-2.7-3.5-4.6-4.7c-1.9-1.1-4.1-1.7-6.3-1.7
			c-2.2,0-4.4,0.6-6.3,1.7l-38,21.8l-38-21.8c-1.9-1.1-4.1-1.7-6.3-1.7s-4.4,0.6-6.3,1.7l-38,21.8l-38-21.8
			c-1.9-1.1-4.1-1.7-6.3-1.7c-2.2,0-4.4,0.6-6.3,1.7c-1.9,1.1-3.5,2.7-4.6,4.7c-1.1,1.9-1.7,4.1-1.7,6.4v202.6
			c0,10.1,4,19.7,11.1,26.9c7.1,7.1,16.8,11.1,26.9,11.1h177.2c10.1,0,19.7-4,26.9-11.1c7.1-7.1,11.1-16.8,11.1-26.9v-76
			c0-3.4-1.3-6.6-3.7-9C2074,257.4,2070.8,256.1,2067.4,256.1z M1864.9,357.4c-3.4,0-6.6-1.3-9-3.7c-2.4-2.4-3.7-5.6-3.7-9V164.1
			l25.3,14.4c2,1,4.1,1.6,6.3,1.6c2.2,0,4.4-0.5,6.3-1.6l38-21.8l38,21.8c2,1,4.1,1.6,6.3,1.6s4.4-0.5,6.3-1.6l25.3-14.4v180.7
			c0,4.3,0.8,8.6,2.3,12.7H1864.9z M2054.8,344.7c0,3.4-1.3,6.6-3.7,9c-2.4,2.4-5.6,3.7-9,3.7c-3.4,0-6.6-1.3-9-3.7
			c-2.4-2.4-3.7-5.6-3.7-9v-63.3h25.3V344.7z"/>
		<g>
			<line class="st11" x1="1896.9" y1="229.2" x2="1961.6" y2="293.9"/>
			<line class="st11" x1="1961.6" y1="229.2" x2="1896.9" y2="293.9"/>
		</g>
	</g>
</g>
</svg>
