<?xml version="1.0" encoding="utf-8"?>
<!-- Generator: Adobe Illustrator 26.0.3, SVG Export Plug-In . SVG Version: 6.00 Build 0)  -->
<svg version="1.1" id="Layer_1" xmlns="http://www.w3.org/2000/svg" xmlns:xlink="http://www.w3.org/1999/xlink" width="267" height="108" x="0px" y="0px"
	 viewBox="85 35 70 110" style="enable-background:new 0 0 240 175;" xml:space="preserve">
<style type="text/css">
	.st0{enable-background:new    ;}
	.st1{fill:#0071CE;}
</style>
<g id="_1_HL" transform="translate(-560 -1856.752)">
	<g class="st0">
		<path class="st1" d="M700.6,1914.2c3.7,0,6.7,1.6,8.9,4.1c0.5,0.5,0.3,1.2-0.3,1.7l-2.2,2.4c-0.5,0.6-1.1,0.3-1.6-0.2
			c-1.1-1.1-2.5-2.1-4.8-2.1c-3.7,0-6.3,2.9-6.3,6.6c0,3.7,2.5,6.7,6.3,6.7c2.7,0,4.1-1.5,5.1-2.7c0.4-0.4,1.1-0.5,1.5-0.2l2.3,2
			c0.6,0.5,0.8,1.1,0.4,1.7c-2,3.2-5.3,5-9.5,5c-7,0-12.7-5.4-12.7-12.6C687.9,1919.7,693.5,1914.2,700.6,1914.2z"/>
		<path class="st1" d="M722.6,1923.6c2.4,0,4.6,0.7,4.6,0.7c0.1-3.1-2-4.5-4.5-4.5c-2.1,0-4.2,0.5-5.6,0.9c-0.8,0.3-1.2-0.3-1.4-1
			l-0.5-2.7c-0.2-0.9,0.3-1.3,0.8-1.5c0.5-0.2,3.7-1.2,7-1.2c7,0,10.2,3.9,10.2,10.5v13.2c0,0.6-0.4,1.1-1.2,1.1
			c-1.9,0-3.1-1-3.6-2.4c-1.5,1.3-3.8,2.8-7.3,2.8c-4.8,0-8.1-3.1-8.1-8.2C713,1926.8,716.5,1923.6,722.6,1923.6z M722.8,1934.5
			c2.1,0,4-1.7,4.3-2.5v-3.5c0,0-1.6-0.7-3.5-0.7c-2.8,0-4.3,1.3-4.3,3.4C719.3,1933.1,720.5,1934.5,722.8,1934.5z"/>
		<path class="st1" d="M739,1937.1c-0.3-0.2-0.6-0.8-0.3-1.3l1.6-3.1c0.3-0.6,0.8-0.8,1.4-0.4c1.1,0.7,2.8,1.6,5.3,1.6
			c1.8,0,2.7-0.7,2.7-1.7c0-1.1-1.4-2.1-4.5-3.3c-4.6-1.8-6.7-4-6.7-7.6c0-3.6,2.8-7,8.6-7c3.5,0,5.8,0.9,7.1,1.8
			c0.5,0.4,0.8,1,0.5,1.7l-1.4,2.8c-0.4,0.6-1,0.7-1.5,0.5c-1.1-0.5-2.8-1.2-4.8-1.2c-1.6,0-2.3,0.8-2.3,1.6c0,1.1,1.2,1.7,3.4,2.6
			c4.6,1.9,8,3.5,8,8.3c0,3.8-3.2,7.2-9.3,7.2C742.9,1939.3,740.4,1938.1,739,1937.1z"/>
		<path class="st1" d="M761.2,1903.5c0-0.6,0.6-1.1,1.1-1.1h4.2c0.6,0,1.1,0.6,1.1,1.1v12.7c1.2-1,3.3-2,6.1-2
			c7.6,0,9.7,5.3,9.7,11.3v12.1c0,0.6-0.6,1.1-1.1,1.1h-4.2c-0.6,0-1.1-0.5-1.1-1.1v-12.1c0-3.3-1.5-5.4-4.4-5.4
			c-2.8,0-4.4,1.8-5,4.2v13.3c0,0.7-0.3,1.1-1.2,1.1h-4.1c-0.6,0-1.1-0.5-1.1-1.1V1903.5z"/>
	</g>
	<g class="st0">
		<path class="st1" d="M689.3,1954.5c0-0.6,0.6-1.1,1.1-1.1h4.2c0.6,0,1.1,0.6,1.1,1.1v11.8c1.1-0.5,3.5-1,5.9-1
			c7.1,0,11.6,5.5,11.6,12.5c0,6.9-4.7,12.6-11.3,12.6c-3.9,0-6.4-2-7.7-3.3c-0.4,1.7-1.6,2.9-3.7,2.9c-0.8,0-1.2-0.5-1.2-1.1
			V1954.5z M695.8,1981.1c0.5,1.4,2.2,3.3,5.3,3.3c3.7,0,5.7-3.3,5.7-6.7s-2-6.6-6-6.6c-3,0-5,1.4-5,1.4V1981.1z"/>
		<path class="st1" d="M726.5,1974.6c2.4,0,4.6,0.7,4.6,0.7c0.1-3.1-2-4.5-4.5-4.5c-2.1,0-4.2,0.5-5.6,0.9c-0.8,0.3-1.2-0.3-1.4-1
			l-0.5-2.7c-0.2-0.9,0.3-1.3,0.8-1.5c0.5-0.2,3.7-1.2,7-1.2c7,0,10.2,3.9,10.2,10.5v13.2c0,0.6-0.4,1.1-1.2,1.1
			c-1.9,0-3.1-1-3.6-2.4c-1.5,1.3-3.8,2.8-7.3,2.8c-4.8,0-8.1-3.1-8.1-8.2C716.9,1977.8,720.4,1974.6,726.5,1974.6z M726.7,1985.5
			c2.1,0,4-1.7,4.3-2.5v-3.5c0,0-1.6-0.7-3.5-0.7c-2.8,0-4.3,1.3-4.3,3.4C723.2,1984.1,724.4,1985.5,726.7,1985.5z"/>
		<path class="st1" d="M755,1965.2c3.7,0,6.7,1.6,8.9,4.1c0.5,0.5,0.3,1.2-0.3,1.7l-2.2,2.4c-0.5,0.6-1.1,0.3-1.6-0.2
			c-1.1-1.1-2.5-2.1-4.8-2.1c-3.7,0-6.3,2.9-6.3,6.6c0,3.7,2.5,6.7,6.3,6.7c2.7,0,4.1-1.5,5.1-2.7c0.4-0.4,1.1-0.5,1.5-0.2l2.3,2
			c0.6,0.5,0.8,1.1,0.4,1.7c-2,3.2-5.3,5-9.5,5c-7,0-12.7-5.4-12.7-12.6C742.2,1970.7,747.8,1965.2,755,1965.2z"/>
		<path class="st1" d="M769.2,1954.5c0-0.6,0.6-1.1,1.1-1.1h4.2c0.6,0,1.1,0.6,1.1,1.1v20.3l8.3-8.4c0.4-0.4,0.8-0.7,1.5-0.7h4.9
			c1,0,1.4,1.1,0.8,1.8l-9.5,9.4l10,11.2c0.6,0.7,0.3,1.7-0.7,1.7h-5.1c-0.4,0-0.9-0.2-1-0.5l-9-10.8v10.1c0,0.6-0.5,1.1-1.1,1.1
			h-4.2c-0.6,0-1.1-0.5-1.1-1.1V1954.5z"/>
	</g>
	<g class="st0">
		<path class="st1" d="M570.1,1928.6c-1.1,0.3-2.1-0.5-2-1.8l0.6-7.1c0.1-1.4,0.4-2,1.6-3l16.5-12.7c1.4-1,2.8-1.5,4.5-1.5h7.1
			c1.1,0,1.9,1.1,1.8,2.4l-11.6,83.3c-0.1,1.4-1.4,2.5-2.5,2.5h-11.7c-1.3,0-2-1.1-1.9-2.5l8.8-62.1L570.1,1928.6z"/>
	</g>
	<g class="st0">
		<path class="st1" d="M664.9,1903.8c0.5-0.8,1.1-1.3,2.1-1.3h6.6c1.6,0,2.4,1.8,1.4,3.4l-50.9,83.5c-0.4,0.5-1.1,1.3-2,1.3h-6.4
			c-1.8,0-2.5-1.8-1.5-3.4L664.9,1903.8z M614.6,1920.6c0-10.6,6.9-19.3,17.3-19.3c7.8,0,13.7,6.6,13.7,14.7
			c0,10.7-7.7,19.3-17.1,19.3C620.5,1935.3,614.6,1928.8,614.6,1920.6z M634.5,1917.4c0-2.8-1.4-5.2-3.7-5.2c-2.8,0-5.4,3.1-5.4,7.1
			c0,2.8,1.5,5.2,3.8,5.2C631.8,1924.5,634.5,1921.2,634.5,1917.4z M661.6,1958c7.8,0,13.7,6.6,13.7,14.7c0,10.7-7.7,19.3-17.1,19.3
			c-7.9,0-13.9-6.6-13.9-14.7C644.3,1966.7,651.2,1958,661.6,1958z M658.9,1981.2c2.6,0,5.3-3.3,5.3-7.1c0-2.8-1.4-5.2-3.7-5.2
			c-2.8,0-5.4,3.1-5.4,7.1C655.2,1978.8,656.7,1981.2,658.9,1981.2z"/>
	</g>
</g>
</svg>
